<?xml version="1.0" standalone="no"?>
<!DOCTYPE svg PUBLIC "-//W3C//DTD SVG 20010904//EN"
 "http://www.w3.org/TR/2001/REC-SVG-20010904/DTD/svg10.dtd">
<svg version="1.0" xmlns="http://www.w3.org/2000/svg"
 width="257.000000pt" height="257.000000pt" viewBox="0 0 257.000000 257.000000"
 preserveAspectRatio="xMidYMid meet">
<metadata>
Created by potrace 1.14, written by Peter Selinger 2001-2017
</metadata>
<g transform="translate(0.000000,257.000000) scale(0.100000,-0.100000)"
fill="#000000" stroke="none">
<path d="M1141 2558 c-401 -46 -760 -283 -961 -632 -61 -107 -118 -245 -135
-331 -11 -53 -25 -127 -30 -160 -7 -44 -8 -258 -1 -290 2 -11 7 -45 11 -75 4
-30 13 -72 21 -92 7 -21 11 -38 9 -38 -17 0 117 -303 150 -340 8 -9 15 -21 15
-27 0 -6 3 -13 8 -15 4 -1 26 -28 48 -58 50 -67 169 -184 243 -239 156 -116
327 -192 533 -236 94 -19 267 -25 393 -12 356 37 725 269 920 577 83 131 166
336 181 446 3 27 10 69 14 94 13 70 4 315 -14 403 -56 260 -163 462 -346 648
-205 209 -455 334 -747 375 -70 10 -238 11 -312 2z"/>
</g>
</svg>
